<svg width="300" height="216" viewBox="0 0 300 216" fill="none" xmlns="http://www.w3.org/2000/svg">
<g clip-path="url(#clip0)">
<path d="M144.64 178.399L220.666 134.485L258.816 156.442L182.653 200.356L144.64 178.399Z" stroke="white" stroke-width="4.1169" stroke-miterlimit="10" stroke-linecap="round" stroke-linejoin="round"/>
<path d="M258.816 167.421L182.653 211.334V200.356L258.816 156.442V167.421Z" stroke="white" stroke-width="4.1169" stroke-miterlimit="10" stroke-linecap="round" stroke-linejoin="round"/>
<path d="M144.64 189.377V178.399L182.653 200.356V211.334L144.64 189.377Z" stroke="white" stroke-width="4.1169" stroke-miterlimit="10" stroke-linecap="round" stroke-linejoin="round"/>
<path d="M87.6902 164.813V186.77L97.1591 192.259" stroke="white" stroke-width="4.1169" stroke-miterlimit="10" stroke-linecap="round" stroke-linejoin="round"/>
<path d="M116.097 181.281L106.628 175.792V186.77L116.097 192.259V203.238L106.628 197.748" stroke="white" stroke-width="4.1169" stroke-miterlimit="10" stroke-linecap="round" stroke-linejoin="round"/>
<path d="M135.172 191.985L125.703 186.495V197.474L135.172 202.963V213.941L125.703 208.452" stroke="white" stroke-width="4.1169" stroke-miterlimit="10" stroke-linecap="round" stroke-linejoin="round"/>
<path d="M78.0841 181.281L68.6152 175.792V153.835L78.0841 159.324" stroke="white" stroke-width="4.1169" stroke-miterlimit="10" stroke-linecap="round" stroke-linejoin="round"/>
<path d="M218.608 141.21L157.266 176.615C155.893 177.438 155.893 179.36 157.266 180.183L180.595 193.631C181.83 194.318 183.477 194.318 184.712 193.631L246.054 158.226C247.426 157.403 247.426 155.481 246.054 154.658L222.725 141.21C221.489 140.386 219.98 140.386 218.608 141.21ZM192.946 183.476L190.201 185.123C189.789 185.398 189.24 185.398 188.829 185.123L183.065 181.83C182.791 181.692 182.653 181.692 182.379 181.83L176.615 185.123C176.204 185.398 175.655 185.398 175.243 185.123L172.498 183.614C171.538 183.065 171.538 181.83 172.498 181.281L176.204 179.085C176.615 178.811 176.615 178.124 176.204 177.85L172.498 175.654C171.538 175.105 171.538 173.87 172.498 173.321L175.243 171.675C175.655 171.4 176.204 171.4 176.615 171.675L182.379 174.968C182.653 175.105 182.791 175.105 183.065 174.968L188.829 171.675C189.24 171.4 189.789 171.4 190.201 171.675L192.946 173.321C193.906 173.87 193.906 175.105 192.946 175.654L189.24 177.85C188.829 178.124 188.829 178.811 189.24 179.085L192.946 181.144C193.769 181.692 193.769 182.927 192.946 183.476ZM217.921 163.166C215.726 164.401 211.197 164.401 209.002 163.166C206.806 161.931 206.806 159.324 209.002 157.952C211.197 156.579 215.726 156.717 217.921 157.952C220.117 159.187 220.117 161.794 217.921 163.166ZM232.468 155.07C230.272 156.305 225.744 156.305 223.548 155.07C221.352 153.835 221.352 151.227 223.548 149.855C225.744 148.483 230.272 148.62 232.468 149.855C234.664 151.227 234.664 153.835 232.468 155.07Z" fill="white"/>
<path d="M192.259 150.953L189.652 149.443C185.398 146.973 180.183 146.973 175.929 149.443L150.267 164.264C146.836 166.185 142.719 166.185 139.289 164.264L93.1793 137.642C89.7486 135.72 85.6317 135.72 82.2009 137.642L55.1666 153.286C51.7359 155.207 47.619 155.207 44.1882 153.286L4.80319 130.643C3.15643 129.682 2.05859 127.898 2.05859 125.84V99.2172C2.05859 97.296 3.15643 95.512 4.80319 94.4142L21.1336 85.0826" stroke="white" stroke-width="4.1169" stroke-miterlimit="10" stroke-linecap="round" stroke-linejoin="round"/>
<path d="M39.1106 126.526L22.7802 118.292C15.9187 114.724 11.5273 107.726 11.5273 99.9034V62.5768C11.5273 52.8335 16.7421 43.7763 25.2503 38.836L42.6786 28.8183C46.9327 26.3481 52.2847 26.3481 56.5388 28.8183L78.2211 41.4434" stroke="white" stroke-width="5.4892" stroke-miterlimit="10" stroke-linecap="round" stroke-linejoin="round"/>
<path d="M96.6101 51.8728L124.879 35.9541C131.192 32.3862 138.328 32.1117 144.641 35.6797L148.62 33.3468C152.051 31.4256 156.168 31.4256 159.599 33.3468L163.578 35.6797L170.44 23.7407C172.087 20.8588 174.557 18.3887 177.439 16.742L196.239 6.03801C199.67 3.97956 203.924 3.97956 207.355 6.03801L220.803 13.8601L239.878 2.88172L280.498 26.3481C290.653 32.2489 296.966 43.0901 296.966 54.8919V67.9287C296.966 72.0456 293.81 75.3392 289.83 75.7508L294.221 78.221C295.868 79.1816 296.966 80.9656 296.966 83.024V123.781L277.891 134.76L220.803 101.825" stroke="white" stroke-width="5.4892" stroke-miterlimit="10" stroke-linecap="round" stroke-linejoin="round"/>
<path d="M277.754 78.4955V62.4396C277.754 52.6963 272.539 43.6391 264.031 38.6988L220.666 13.7229L198.298 26.6226C194.318 28.9555 191.299 32.5234 189.789 36.9148L182.653 57.6365C177.439 48.5794 165.774 45.4231 156.717 50.6378L146.013 56.8132C145.19 57.3621 144.641 58.1854 144.641 59.1461V57.6365L128.722 48.4421C110.47 37.8754 87.553 51.0495 87.553 72.1829V73.2808C87.553 71.2223 85.2201 69.85 83.4361 70.9478L84.1223 70.5362C86.1807 69.3011 87.553 67.1054 87.553 64.6353V57.911C87.553 43.0902 71.4971 33.8957 58.7347 41.3062L40.7576 51.5984C34.445 55.3036 30.4653 62.0279 30.4653 69.4383V109.784C30.4653 125.565 47.6191 135.583 61.3421 127.624L87.553 112.529L116.097 128.996L144.641 145.464L169.754 130.917C171.812 129.682 173.185 127.487 173.185 125.016V107.039V117.057C173.185 122.272 178.948 125.703 183.477 122.958L198.298 114.45C200.356 113.215 201.728 111.019 201.728 108.549V100.59C201.728 105.804 207.492 109.235 212.021 106.49L220.803 101.413L245.23 115.548C247.014 116.645 249.347 115.273 249.347 113.215V106.079C249.347 113.489 253.327 120.213 259.639 123.919L277.891 134.485V102.236C277.891 94.9631 274.049 88.2388 267.873 84.5336L258.953 79.1816L267.599 84.2592C271.99 87.141 277.754 83.8475 277.754 78.4955Z" stroke="white" stroke-width="5.4892" stroke-miterlimit="10" stroke-linecap="round" stroke-linejoin="round"/>
<path d="M274.46 84.2591L289.693 75.4764" stroke="white" stroke-width="5.4892" stroke-miterlimit="10" stroke-linecap="round" stroke-linejoin="round"/>
<path d="M58.8717 41.3061L40.8945 51.5984C34.582 55.3036 30.6023 62.0279 30.6023 69.4383V109.784C30.6023 125.565 47.756 135.583 61.479 127.624L87.69 112.529V73.418C87.69 71.3595 85.3571 69.9872 83.5731 71.0851L66.0076 81.2401C61.7535 83.7102 59.1461 88.2388 59.1461 93.1791V97.7077C59.1461 101.962 63.6747 104.569 67.3799 102.511L68.615 101.55L67.3799 102.236C63.6747 104.295 59.1461 101.687 59.1461 97.4332V92.9046C59.1461 87.9643 61.7535 83.4358 66.0076 80.9656L84.2592 70.3989C86.3177 69.1638 87.69 66.9682 87.69 64.498V57.7737C87.69 43.2274 71.6341 33.8957 58.8717 41.3061Z" stroke="white" stroke-width="5.4892" stroke-miterlimit="10" stroke-linecap="round" stroke-linejoin="round"/>
<path d="M87.6902 72.1829V112.529L116.234 128.996V85.0825V128.996L144.778 145.464V57.6365L128.859 48.4421C110.47 37.8754 87.6902 51.0495 87.6902 72.1829Z" stroke="white" stroke-width="5.4892" stroke-miterlimit="10" stroke-linecap="round" stroke-linejoin="round"/>
<path d="M220.666 13.7229L198.298 26.6225C194.318 28.9555 191.299 32.5234 189.789 36.9148L182.653 57.6365C177.439 48.5793 165.774 45.4231 156.717 50.6378L146.013 56.8132C145.19 57.3621 144.641 58.1854 144.641 59.1461V145.326L169.754 130.78C171.812 129.545 173.184 127.349 173.184 124.879V107.039V117.057C173.184 122.272 178.948 125.703 183.477 122.958L198.298 114.45C200.356 113.215 201.728 111.019 201.728 108.549V90.5717V100.59C201.728 105.804 207.492 109.235 212.021 106.49L220.803 101.413V13.7229H220.666Z" stroke="white" stroke-width="5.4892" stroke-miterlimit="10" stroke-linecap="round" stroke-linejoin="round"/>
<path d="M220.666 13.7229V101.55L245.093 115.685C246.877 116.783 249.21 115.41 249.21 113.352V96.0609V106.079C249.21 113.489 253.189 120.213 259.502 123.919L277.753 134.485V102.236C277.753 94.9631 273.911 88.2388 267.736 84.5336L258.816 79.1816L267.461 84.2591C271.99 87.0037 277.891 83.7102 277.891 78.3583V62.3023C277.891 52.559 272.676 43.5018 264.168 38.5616L220.666 13.7229Z" stroke="white" stroke-width="5.4892" stroke-miterlimit="10" stroke-linecap="round" stroke-linejoin="round"/>
<path d="M220.666 13.7229V42.6785C220.666 45.1486 222.038 47.3443 224.097 48.5794L249.21 63.1257L230.958 52.559C226.429 49.9517 220.666 53.2452 220.666 58.4599V79.5933" stroke="white" stroke-width="5.4892" stroke-miterlimit="10" stroke-linecap="round" stroke-linejoin="round"/>
</g>
<defs>
<clipPath id="clip0">
<rect width="299.573" height="216" fill="white"/>
</clipPath>
</defs>
</svg>
